<svg id="Component_16_1" data-name="Component 16 – 1" xmlns="http://www.w3.org/2000/svg" xmlns:xlink="http://www.w3.org/1999/xlink" width="155.651" height="42" viewBox="0 0 155.651 42">
  <defs>
    <clipPath id="clip-path">
      <rect id="Rectangle_1369" data-name="Rectangle 1369" width="155.651" height="42" fill="none"/>
    </clipPath>
  </defs>
  <g id="Group_1842" data-name="Group 1842" clip-path="url(#clip-path)">
    <path id="Path_1233" data-name="Path 1233" d="M265.06,4.389a1.291,1.291,0,0,0,.115.571,1.052,1.052,0,0,0,.318.39,1.336,1.336,0,0,0,.472.22,2.367,2.367,0,0,0,.577.071,1.916,1.916,0,0,0,.571-.077,1.1,1.1,0,0,0,.384-.2.737.737,0,0,0,.214-.28.834.834,0,0,0,.066-.324.675.675,0,0,0-.154-.494.863.863,0,0,0-.329-.225,6.385,6.385,0,0,0-.719-.214c-.275-.066-.615-.154-1.016-.264a2.192,2.192,0,0,1-.626-.258,1.475,1.475,0,0,1-.4-.357,1.294,1.294,0,0,1-.209-.417,1.562,1.562,0,0,1-.06-.45,1.539,1.539,0,0,1,.181-.763,1.608,1.608,0,0,1,.483-.533,2.123,2.123,0,0,1,.686-.313,3.127,3.127,0,0,1,.774-.1,2.948,2.948,0,0,1,.862.121,2.05,2.05,0,0,1,.708.357,1.707,1.707,0,0,1,.483.582,1.777,1.777,0,0,1,.181.8h-1.021a.981.981,0,0,0-.384-.8,1.542,1.542,0,0,0-.873-.231,1.71,1.71,0,0,0-.368.038,1.088,1.088,0,0,0-.34.121.791.791,0,0,0-.258.231.646.646,0,0,0-.1.368.62.62,0,0,0,.192.483,1.272,1.272,0,0,0,.5.264,2.373,2.373,0,0,1,.258.071c.148.044.318.088.5.132s.368.1.544.143.3.082.379.1a1.7,1.7,0,0,1,.5.247,1.535,1.535,0,0,1,.571.785,1.642,1.642,0,0,1,.071.456,1.593,1.593,0,0,1-.725,1.4,2.377,2.377,0,0,1-.741.324,3.675,3.675,0,0,1-.846.1,3.493,3.493,0,0,1-.939-.121,2.331,2.331,0,0,1-.769-.373,1.839,1.839,0,0,1-.522-.648,2.145,2.145,0,0,1-.2-.933h1.021Z" transform="translate(-119.062 -0.167)" fill="#01b3cd"/>
    <path id="Path_1234" data-name="Path 1234" d="M274.3.62h1.021V3.272L277.913.62h1.257l-2.323,2.323,2.487,3.5h-1.274L276.15,3.656l-.829.824V6.44H274.3Z" transform="translate(-123.684 -0.28)" fill="#01b3cd"/>
    <path id="Path_1235" data-name="Path 1235" d="M15.792,7.186C15.1,4.067,13.239,2.167,9.884,2.167c-4.859,0-7.33,4.5-7.33,8.906s2.471,8.906,7.33,8.906a6.282,6.282,0,0,0,6.073-5.952H18.5c-.686,5.063-3.926,8.1-8.626,8.1C3.52,22.126,0,17.064,0,11.073S3.52.02,9.878.02c4.492,0,7.852,2.35,8.461,7.166H15.792Z" transform="translate(0 -0.009)" fill="#01b3cd"/>
    <path id="Path_1236" data-name="Path 1236" d="M39.9,7.026C40.18,2.129,43.545.02,48.361.02c3.684,0,7.693,1.093,7.693,6.721v11.1a1.341,1.341,0,0,0,1.5,1.537,1.874,1.874,0,0,0,.813-.165v2.147a7.268,7.268,0,0,1-1.658.159c-2.592,0-3-1.5-3-3.64h-.082c-1.823,2.713-3.564,4.25-7.61,4.25S39.01,20.221,39.01,16.01c0-5.831,5.711-6.073,11.218-6.721,2.109-.2,3.278-.566,3.278-2.833,0-3.443-2.427-4.294-5.469-4.294-3.2,0-5.463,1.455-5.59,4.859H39.9ZM53.506,10.1h-.082c-.324.609-1.455.813-2.147.933-4.332.769-9.719.769-9.719,4.816,0,2.553,2.229,4.129,4.656,4.129,3.926,0,7.286-2.471,7.286-6.556V10.1Z" transform="translate(-17.59 -0.009)" fill="#01b3cd"/>
    <path id="Path_1237" data-name="Path 1237" d="M79.05.634H81.4V4.6h.082A7.714,7.714,0,0,1,88.934.03c6.358,0,9.395,5.1,9.395,11.053s-3.036,11.053-9.395,11.053c-3.075,0-6.155-1.537-7.248-4.579H81.6v11.7H79.05Zm9.884,1.537c-5.667,0-7.33,4.168-7.33,8.906,0,4.332,1.944,8.906,7.33,8.906,4.859,0,6.842-4.574,6.842-8.906s-1.982-8.906-6.842-8.906" transform="translate(-35.644 -0.014)" fill="#01b3cd"/>
    <path id="Path_1238" data-name="Path 1238" d="M121.728,11.77c0,3.723,2.026,8.22,6.886,8.22,3.723,0,5.749-2.147,6.562-5.343h2.548c-1.093,4.739-3.805,7.49-9.109,7.49-6.639,0-9.433-5.1-9.433-11.053,0-5.507,2.795-11.053,9.433-11.053s9.395,5.87,9.192,11.745H121.733Zm13.524-2.147c-.121-3.849-2.553-7.451-6.639-7.451s-6.441,3.646-6.886,7.451Z" transform="translate(-53.739 -0.014)" fill="#01b3cd"/>
    <path id="Path_1239" data-name="Path 1239" d="M162.519,11.163,155.029,1.12h3.2l5.952,7.934,5.831-7.934h3.2l-7.534,10,8.138,10.894h-3.24l-6.562-8.785-6.435,8.785H154.42Z" transform="translate(-69.629 -0.505)" fill="#01b3cd"/>
    <path id="Path_1240" data-name="Path 1240" d="M210.547,22.023H208.2V18.256h-.082a7.771,7.771,0,0,1-7.2,4.376c-5.3,0-7.33-3.036-7.33-7.934V1.13h2.553V14.736c.121,3.767,1.537,5.749,5.59,5.749,4.376,0,6.276-4.129,6.276-8.385V1.13h2.553V22.023Z" transform="translate(-87.287 -0.51)" fill="#01b3cd"/>
    <path id="Path_1241" data-name="Path 1241" d="M243.909,6.732c-.121-3.157-2.553-4.574-5.469-4.574-2.268,0-4.942.89-4.942,3.6,0,2.229,2.548,3.08,4.332,3.52l3.4.769c2.916.445,5.952,2.147,5.952,5.787,0,4.535-4.492,6.276-8.379,6.276-4.9,0-8.138-2.229-8.582-7.369h2.553c.2,3.443,2.756,5.222,6.155,5.222,2.427,0,5.711-1.054,5.711-3.97,0-2.427-2.268-3.24-4.574-3.805l-3.278-.73c-3.322-.851-5.831-2.065-5.831-5.59,0-4.25,4.173-5.87,7.857-5.87,4.212,0,7.451,2.185,7.654,6.721H243.92Z" transform="translate(-103.808 0)" fill="#01b3cd"/>
    <path id="Path_1242" data-name="Path 1242" d="M5.451,64.769a2.464,2.464,0,0,1-2.63,2.421C1.1,67.19.01,65.96.01,64.033a3.331,3.331,0,0,1,.829-2.339,2.619,2.619,0,0,1,2.048-.846,2.5,2.5,0,0,1,1.966.774A2.026,2.026,0,0,1,5.4,62.8H4.6a1.644,1.644,0,0,0-1.73-1.274,1.777,1.777,0,0,0-1.631.884,3.171,3.171,0,0,0-.417,1.609c0,1.521.791,2.487,2.048,2.487a1.708,1.708,0,0,0,1.785-1.741h.8ZM2.283,59.36l.544.736.566-.736h.747l-.873,1.131H2.355l-.89-1.131Z" transform="translate(-0.005 -26.766)" fill="#737373"/>
    <rect id="Rectangle_1367" data-name="Rectangle 1367" width="0.719" height="6.073" transform="translate(6.391 34.214)" fill="#737373"/>
    <path id="Path_1243" data-name="Path 1243" d="M18.778,68.239a1.792,1.792,0,0,1-1.922,1.537A2.046,2.046,0,0,1,14.77,67.47a2.107,2.107,0,0,1,2.059-2.35,1.889,1.889,0,0,1,1.785,1.148,3.141,3.141,0,0,1,.209,1.356H15.517c.027,1.027.489,1.537,1.384,1.537a1.112,1.112,0,0,0,1.164-.928h.708Zm-.7-1.2a1.255,1.255,0,0,0-1.268-1.312c-.73,0-1.175.456-1.285,1.312h2.553Z" transform="translate(-6.66 -29.363)" fill="#737373"/>
    <path id="Path_1244" data-name="Path 1244" d="M24.555,65.947a1.679,1.679,0,0,1,1.532-.807,1.365,1.365,0,0,1,1.263.637,2.022,2.022,0,0,1,.181,1.049v2.839h-.719V67.078a1.76,1.76,0,0,0-.148-.966.946.946,0,0,0-.807-.362,1.171,1.171,0,0,0-1.1.664,2.515,2.515,0,0,0-.154,1.12v2.13H23.88v-4.4h.675Z" transform="translate(-10.768 -29.372)" fill="#737373"/>
    <path id="Path_1245" data-name="Path 1245" d="M38.971,66.53c-.082-.555-.412-.8-1.076-.8-.566,0-.9.231-.9.609s.192.472,1.175.692a3.339,3.339,0,0,1,1.29.472,1.068,1.068,0,0,1,.412.868c0,.857-.719,1.411-1.828,1.411-1.186,0-1.85-.527-1.883-1.521h.708c.071.62.445.911,1.181.911.637,0,1.076-.291,1.076-.73,0-.373-.247-.527-1.109-.736a4.668,4.668,0,0,1-1.246-.384,1,1,0,0,1-.511-.9c0-.791.659-1.29,1.675-1.29a1.86,1.86,0,0,1,1.45.538,1.266,1.266,0,0,1,.307.868h-.719Z" transform="translate(-16.305 -29.368)" fill="#737373"/>
    <path id="Path_1246" data-name="Path 1246" d="M45.235,65.888A1.626,1.626,0,0,1,46.7,65.13a2.071,2.071,0,0,1,2.021,2.35c0,1.422-.791,2.3-1.977,2.3a1.621,1.621,0,0,1-1.466-.73v2.317H44.56V65.256h.675v.631Zm.016,1.565c0,1.065.527,1.719,1.384,1.719s1.351-.664,1.351-1.691-.549-1.741-1.351-1.741c-.862,0-1.384.648-1.384,1.713" transform="translate(-20.092 -29.368)" fill="#737373"/>
    <path id="Path_1247" data-name="Path 1247" d="M57.7,67.453a2.049,2.049,0,0,1-2.1,2.328,2.331,2.331,0,0,1,.011-4.651A2.047,2.047,0,0,1,57.7,67.453m-3.52.011c0,1.054.538,1.713,1.411,1.713s1.373-.653,1.373-1.73-.538-1.7-1.367-1.7c-.873,0-1.422.659-1.422,1.719" transform="translate(-24.097 -29.368)" fill="#737373"/>
    <rect id="Rectangle_1368" data-name="Rectangle 1368" width="0.719" height="6.073" transform="translate(34.587 34.214)" fill="#737373"/>
    <path id="Path_1248" data-name="Path 1248" d="M70.381,67.453a2.049,2.049,0,0,1-2.1,2.328,2.331,2.331,0,0,1,.011-4.651,2.047,2.047,0,0,1,2.092,2.323m-3.52.011c0,1.054.538,1.713,1.411,1.713s1.373-.653,1.373-1.73-.538-1.7-1.367-1.7c-.873,0-1.422.659-1.422,1.719" transform="translate(-29.814 -29.368)" fill="#737373"/>
    <path id="Path_1249" data-name="Path 1249" d="M79.189,66.631a1.843,1.843,0,0,1-1.933,1.73,2.028,2.028,0,0,1-2.087-2.268,2.1,2.1,0,0,1,2.114-2.383,1.707,1.707,0,0,1,1.878,1.554H78.41a1.062,1.062,0,0,0-1.12-.95c-.835,0-1.367.664-1.367,1.724s.5,1.713,1.318,1.713a1.164,1.164,0,0,0,1.2-1.12ZM77.652,63.2h-.791l-.89-1.219h.73l.582.818.6-.818h.653L77.652,63.2" transform="translate(-33.895 -27.947)" fill="#737373"/>
    <path id="Path_1250" data-name="Path 1250" d="M84.765,65.947a1.676,1.676,0,0,1,1.526-.807,1.381,1.381,0,0,1,1.268.637,2.022,2.022,0,0,1,.181,1.049v2.839h-.719V67.078a1.76,1.76,0,0,0-.148-.966.946.946,0,0,0-.807-.362,1.171,1.171,0,0,0-1.1.664,2.515,2.515,0,0,0-.154,1.12v2.13H84.09v-4.4h.675v.681" transform="translate(-37.917 -29.372)" fill="#737373"/>
    <path id="Path_1251" data-name="Path 1251" d="M96.518,66.85A1.792,1.792,0,0,1,94.6,68.387a2.046,2.046,0,0,1-2.087-2.306,2.107,2.107,0,0,1,2.059-2.35,1.884,1.884,0,0,1,1.785,1.148,3.141,3.141,0,0,1,.209,1.356H93.257c.027,1.027.489,1.537,1.384,1.537a1.112,1.112,0,0,0,1.164-.928h.708Zm-.7-1.2a1.255,1.255,0,0,0-1.268-1.312c-.73,0-1.175.456-1.285,1.312h2.553Zm-1.17-2.394h-.5l.626-1.213h.9l-1.021,1.213" transform="translate(-41.714 -27.974)" fill="#737373"/>
    <path id="Path_1252" data-name="Path 1252" d="M102.354,64.095c0,.048-.005.221-.016.522a1.673,1.673,0,0,1,1.477-.758,1.35,1.35,0,0,1,1.312.653,2.126,2.126,0,0,1,.165,1.01v2.861h-.719V65.616a1.32,1.32,0,0,0-.148-.791.951.951,0,0,0-.818-.357,1.165,1.165,0,0,0-1.109.675,2.71,2.71,0,0,0-.137,1.164v2.076h-.719V62.31h.719v1.785Z" transform="translate(-45.83 -28.096)" fill="#737373"/>
    <path id="Path_1253" data-name="Path 1253" d="M114.311,67.453a2.049,2.049,0,0,1-2.1,2.328,2.331,2.331,0,0,1,.011-4.651,2.047,2.047,0,0,1,2.092,2.323m-3.52.011c0,1.054.538,1.713,1.411,1.713s1.373-.653,1.373-1.73-.538-1.7-1.367-1.7c-.873,0-1.422.659-1.422,1.719" transform="translate(-49.622 -29.368)" fill="#737373"/>
    <path id="Path_1254" data-name="Path 1254" d="M124.415,65.888a1.62,1.62,0,0,1,1.466-.758,2.071,2.071,0,0,1,2.021,2.35c0,1.422-.791,2.3-1.977,2.3a1.627,1.627,0,0,1-1.466-.73v2.317h-.719V65.256h.675v.631Zm.022,1.565c0,1.065.527,1.719,1.384,1.719s1.345-.664,1.345-1.691-.544-1.741-1.345-1.741c-.862,0-1.384.648-1.384,1.713" transform="translate(-55.795 -29.368)" fill="#737373"/>
    <path id="Path_1255" data-name="Path 1255" d="M136.891,67.453a2.049,2.049,0,0,1-2.1,2.328,2.331,2.331,0,0,1,.011-4.651,2.044,2.044,0,0,1,2.092,2.323m-3.525.011c0,1.054.538,1.713,1.411,1.713s1.378-.653,1.378-1.73-.538-1.7-1.367-1.7c-.873,0-1.422.659-1.422,1.719" transform="translate(-59.804 -29.368)" fill="#737373"/>
    <path id="Path_1256" data-name="Path 1256" d="M145.827,68.387h-.681V67.74a1.527,1.527,0,0,1-1.444.774,2.045,2.045,0,0,1-2.032-2.328,2.412,2.412,0,0,1,.549-1.691,1.9,1.9,0,0,1,1.428-.626,1.567,1.567,0,0,1,1.455.736V62.32h.73v6.073Zm-3.421-2.218c0,1.049.538,1.741,1.367,1.741s1.345-.653,1.345-1.7a1.9,1.9,0,0,0-.412-1.329,1.313,1.313,0,0,0-.939-.4c-.846,0-1.367.648-1.367,1.7" transform="translate(-63.88 -28.101)" fill="#737373"/>
    <path id="Path_1257" data-name="Path 1257" d="M152.24,65.947a1.679,1.679,0,0,1,1.532-.807,1.381,1.381,0,0,1,1.268.637,2.022,2.022,0,0,1,.181,1.049v2.839H154.5V67.078a1.76,1.76,0,0,0-.148-.966.95.95,0,0,0-.813-.362,1.158,1.158,0,0,0-1.1.664,2.515,2.515,0,0,0-.154,1.12v2.13h-.719v-4.4h.675v.681Z" transform="translate(-68.344 -29.372)" fill="#737373"/>
    <path id="Path_1258" data-name="Path 1258" d="M161.2,63.194h-.719V62.31h.719Zm0,5.189h-.719v-4.4h.719Z" transform="translate(-72.362 -28.096)" fill="#737373"/>
    <path id="Path_1259" data-name="Path 1259" d="M166.08,65.583l1.878,2.806h-.917l-1.51-2.3-.692.626v1.664h-.719V62.31h.719v3.613a3.756,3.756,0,0,1,.3-.3l1.73-1.636h.966l-1.746,1.592Z" transform="translate(-74.003 -28.096)" fill="#737373"/>
    <path id="Path_1260" data-name="Path 1260" d="M176.068,69.763h-.675v-.681a1.741,1.741,0,0,1-1.526.813,1.455,1.455,0,0,1-1.175-.483,1.773,1.773,0,0,1-.291-1.192V65.37h.719v2.6a1.71,1.71,0,0,0,.148.955.912.912,0,0,0,.8.368,1.221,1.221,0,0,0,1.1-.648,2.381,2.381,0,0,0,.17-1.137v-2.13h.73v4.4Z" transform="translate(-77.737 -29.476)" fill="#737373"/>
    <path id="Path_1261" data-name="Path 1261" d="M190.561,64.769a2.464,2.464,0,0,1-2.63,2.421c-1.719,0-2.811-1.23-2.811-3.157a3.331,3.331,0,0,1,.829-2.339A2.619,2.619,0,0,1,188,60.848a2.5,2.5,0,0,1,1.966.774,2.026,2.026,0,0,1,.549,1.181h-.8a1.644,1.644,0,0,0-1.73-1.274,1.777,1.777,0,0,0-1.631.884,3.171,3.171,0,0,0-.417,1.609c0,1.521.791,2.487,2.048,2.487a1.708,1.708,0,0,0,1.785-1.741h.8Zm-3.174-5.409.549.736.566-.736h.747l-.873,1.131h-.911l-.89-1.131h.813Z" transform="translate(-83.472 -26.766)" fill="#737373"/>
    <path id="Path_1262" data-name="Path 1262" d="M201.066,63.013h-3.4v1.922h3.179v.642h-3.179v2.1h3.448v.7h-4.25V62.31h4.206Z" transform="translate(-88.766 -28.096)" fill="#737373"/>
    <path id="Path_1263" data-name="Path 1263" d="M210.454,62.97l-3.448,4.288s-.082.093-.17.2c-.027.038-.115.137-.2.236.868-.016.939-.016,1.12-.016h2.795v.7H205.71V67.7l3.487-4.327s.1-.121.192-.22l.148-.165c-.428.016-.648.016-1.076.016h-2.449v-.7h4.453v.664Z" transform="translate(-92.756 -28.092)" fill="#737373"/>
    <path id="Path_1264" data-name="Path 1264" d="M224.28,69.643a1.475,1.475,0,0,1-.511.093.58.58,0,0,1-.626-.653,1.953,1.953,0,0,1-1.592.708,1.241,1.241,0,0,1-1.411-1.246,1.214,1.214,0,0,1,.829-1.2,4.7,4.7,0,0,1,1.356-.247c.593-.071.774-.209.774-.582,0-.511-.329-.763-.994-.763-.7,0-1.021.264-1.082.89h-.708c.027-.944.708-1.5,1.85-1.5a2,2,0,0,1,1.373.439,1.271,1.271,0,0,1,.3,1.027c0,.39-.016,1.395-.027,1.812-.011.121-.011.225-.011.264,0,.329.082.445.291.445a.457.457,0,0,0,.192-.044v.566Zm-1.175-2.268c-.192.148-.346.192-.972.264a2.21,2.21,0,0,0-.873.209.676.676,0,0,0-.373.626c0,.456.335.747.873.747a1.485,1.485,0,0,0,1.208-.593.886.886,0,0,0,.137-.6v-.648Z" transform="translate(-99.263 -29.372)" fill="#737373"/>
    <path id="Path_1265" data-name="Path 1265" d="M236.446,63.982c-.1-.846-.571-1.235-1.51-1.235-.857,0-1.367.373-1.367,1.01a.7.7,0,0,0,.318.62,4.148,4.148,0,0,0,1.329.4,4.2,4.2,0,0,1,1.51.511,1.457,1.457,0,0,1,.73,1.285,1.7,1.7,0,0,1-.675,1.373,2.622,2.622,0,0,1-1.686.467c-1.587,0-2.5-.785-2.515-2.141h.774c.027.95.648,1.455,1.8,1.455.939,0,1.494-.406,1.494-1.1,0-.445-.253-.73-.818-.922-.165-.055-.6-.165-1.29-.329a2.968,2.968,0,0,1-1.241-.467,1.334,1.334,0,0,1-.5-1.109c0-1.076.818-1.741,2.141-1.741,1.428,0,2.24.686,2.284,1.922Z" transform="translate(-104.872 -27.983)" fill="#737373"/>
    <path id="Path_1266" data-name="Path 1266" d="M245.821,62.31a2.179,2.179,0,0,1,1.411.329,1.621,1.621,0,0,1,.7,1.422,1.707,1.707,0,0,1-.708,1.521,2.148,2.148,0,0,1-1.367.307h-1.647v2.493h-.8V62.31h2.411Zm-1.609,2.932h1.548a1.563,1.563,0,0,0,.955-.22,1.149,1.149,0,0,0,.406-.917,1,1,0,0,0-.483-.917,1.725,1.725,0,0,0-1-.176h-1.428Z" transform="translate(-109.756 -28.096)" fill="#737373"/>
    <path id="Path_1267" data-name="Path 1267" d="M255.82,62.31a2.17,2.17,0,0,1,1.411.329,1.621,1.621,0,0,1,.7,1.422,1.707,1.707,0,0,1-.708,1.521,2.148,2.148,0,0,1-1.367.307h-1.647v2.493h-.8V62.31Zm-1.609,2.932h1.548a1.563,1.563,0,0,0,.955-.22,1.149,1.149,0,0,0,.406-.917,1,1,0,0,0-.483-.917,1.725,1.725,0,0,0-1-.176h-1.428Z" transform="translate(-114.265 -28.096)" fill="#737373"/>
  </g>
</svg>
